<svg xmlns="http://www.w3.org/2000/svg" width="3355" height="1019" fill="none"><path fill="#0043E0" fill-rule="evenodd" d="M491.594 237.5c-5.351 0-10.874.223-15.951.434l-.038.002-.037.002c-117.76 5.745-218.717 85.739-251.419 199.29-7.29 24.76-11.036 50.59-11.256 76.608l-.001.045v1.957c0 21.426 4.692 45.759 8.336 61.84l.025.114.028.112a21.128 21.128 0 0 0 1.115 3.35c2.201 8.342 4.715 16.573 7.67 24.803-4.384 8.562-12.49 21.704-22.013 36.211-10.792 16.44-22.927 33.922-32.286 46.974a12.79 12.79 0 0 0-1.127 1.674c-.155.27-.298.542-.407.755-11.792 19.869-11.667 44.796-.344 64.678l.011.019.01.018c11.641 20.25 33.169 32.689 56.283 32.689h242.48l.467.019c4.821.202 9.712.406 14.629.406 73.753 0 143.15-28.517 195.702-80.86 52.536-52.114 81.707-121.51 82.149-195.077v-1.976c0-14.518-2.032-32.055-6.172-51.887l-.125-.596-.192-.578-.014-.043a5.57 5.57 0 0 1-.039-.131l-.131-.453-.017-.06c-.051-.179-.123-.43-.207-.711-2.138-10.737-5.082-21.405-8.534-31.725.315-.8.566-1.565.769-2.271.642-2.129 2.806-6.707 6.684-13.587 3.728-6.613 8.58-14.564 13.962-23.028 10.758-16.915 23.409-35.528 32.888-48.907l.465-.656.176-.353c.143-.22.357-.562.587-.983 11.828-20.072 11.73-44.805.419-64.918-11.453-20.365-33.047-32.775-56.332-32.775H506.689l-.465-.019c-4.821-.202-9.713-.406-14.63-.406Zm-218.81 212.006c26.818-92.269 109.096-157.24 205.487-161.895 4.718-.215 9.145-.414 13.323-.414 4.177 0 8.614.199 13.102.413l.249.012h245.287c5.262 0 10.324 2.986 12.97 7.649a15.065 15.065 0 0 1 .22 14.53c-11.265 15.942-21.046 32.896-30.514 49.309l-.246.426c-9.718 16.846-19.119 33.109-29.826 48.111-5.101 6.972-6.117 15.747-3.276 23.562l.031.086.032.084c4.657 12.15 8.33 25.19 10.991 38.296l.047.229.057.227c.149.599.297 1.116.4 1.475l.009.032.1.354.071.257c3.074 15.651 4.632 29.272 4.632 39.55v1.67c-.833 124.722-103.239 226.334-227.949 226.334-4.177 0-8.614-.199-13.102-.413l-.249-.012H230.405c-5.429 0-10.406-2.919-12.97-7.436l-.03-.054-.032-.054c-2.451-4.203-2.623-9.633-.297-14.314l1.134-1.606c6.021-8.515 18.927-26.767 31.441-45.835 6.855-10.446 13.665-21.246 19.194-30.9 5.324-9.296 9.961-18.374 11.972-25.22 1.813-5.62 1.415-11.531-.748-16.667-4.034-10.102-7.283-20.452-9.936-31.07l-.098-.391-.591-1.773c-4.301-19.582-6.436-36.001-6.436-48.22v-1.649c.207-21.366 3.26-42.481 9.341-62.959l.435-1.463v-.261Z" clip-rule="evenodd"/><path fill="#0043E0" fill-rule="evenodd" d="M395.49 516.263c0 52.509 42.756 95.276 95.254 95.276 52.498 0 95.254-42.767 95.254-95.276 0-52.508-42.756-95.275-95.254-95.275-52.498 0-95.254 42.767-95.254 95.275Zm51.454 0c0-24.275 19.532-43.811 43.8-43.811 23.945 0 43.8 19.55 43.8 43.811 0 24.276-19.532 43.812-43.8 43.812-24.268 0-43.8-19.536-43.8-43.812Z" clip-rule="evenodd"/><path fill="#0043E0" d="M472.655 379.529c13.972-1.773 23.861-14.535 22.089-28.507-1.773-13.971-14.535-23.86-28.507-22.088a188.827 188.827 0 0 0-109.76 53.806c-9.959 9.958-9.959 26.104 0 36.063 9.958 9.958 26.104 9.958 36.062 0a137.821 137.821 0 0 1 80.116-39.274ZM520.928 353.873c4.738-13.262 19.329-20.173 32.592-15.436a188.832 188.832 0 0 1 125.311 177.826c0 14.084-11.417 25.5-25.5 25.5-14.084 0-25.5-11.416-25.5-25.5a137.835 137.835 0 0 0-91.467-129.798c-13.262-4.737-20.173-19.329-15.436-32.592ZM643.352 577.991c12.097 7.211 16.058 22.864 8.846 34.961a188.786 188.786 0 0 1-36.274 44.024c-10.495 9.392-26.616 8.498-36.007-1.997-9.392-10.494-8.498-26.615 1.997-36.007a137.776 137.776 0 0 0 26.477-32.134c7.211-12.097 22.864-16.058 34.961-8.847ZM398.527 653.958c5.89-12.793 21.035-18.388 33.827-12.498a137.83 137.83 0 0 0 74.06 11.653c13.983-1.677 26.679 8.299 28.356 22.282 1.677 13.983-8.299 26.678-22.282 28.355a188.823 188.823 0 0 1-101.464-15.965c-12.792-5.89-18.387-21.035-12.497-33.827ZM358.587 474.697c4.247-13.428-3.195-27.756-16.623-32.003-13.427-4.248-27.756 3.195-32.003 16.622a188.838 188.838 0 0 0-8.259 71.121c1.057 14.044 13.299 24.572 27.342 23.514 14.044-1.057 24.571-13.298 23.514-27.342a137.843 137.843 0 0 1 6.029-51.912Z"/><path fill="#000" d="m959.661 680 136.899-333.9h93.97L1325.52 680h-88.72l-30.53-80.613h-130.22L1045.04 680h-85.379Zm141.189-145.962h81.09l-40.06-106.848-41.03 106.848ZM1412.05 427.667v145.008c0 13.674 4.13 24.804 12.4 33.39 8.59 8.268 19.72 12.402 33.39 12.402 9.86 0 18.6-1.749 26.23-5.247 7.64-3.498 14-8.427 19.08-14.787V427.667h77.28V680h-77.28v-17.172c-9.22 6.996-19.71 12.402-31.48 16.218-11.45 3.816-23.53 5.724-36.25 5.724-29.57 0-53.74-9.54-72.5-28.62-18.77-19.08-28.15-43.407-28.15-72.981V427.667h77.28ZM1664.06 603.203V492.062h-51.04v-64.395h51.04v-64.872l77.27-16.695v81.567h70.6v64.395h-70.6v95.877c0 11.13 2.39 19.08 7.16 23.85 5.09 4.452 13.83 6.678 26.23 6.678 6.05 0 11.77-.318 17.18-.954 5.4-.954 11.28-2.385 17.64-4.293v62.487c-6.99 2.226-15.9 3.975-26.71 5.247-10.81 1.59-19.87 2.385-27.19 2.385-30.21 0-53.1-6.678-68.68-20.034-15.27-13.674-22.9-33.708-22.9-60.102ZM1842.1 680V346.1l77.27-16.695v115.434c9.22-6.996 19.56-12.402 31.01-16.218 11.76-3.816 24-5.724 36.72-5.724 29.58 0 53.75 9.54 72.51 28.62 18.76 19.08 28.14 43.407 28.14 72.981V680h-77.27V534.992c0-13.674-4.3-24.645-12.88-32.913-8.27-8.586-19.24-12.879-32.91-12.879-9.86 0-18.61 1.749-26.24 5.247-7.63 3.498-13.99 8.427-19.08 14.787V680h-77.27ZM2250.56 680.954c-17.8 0-34.66-3.339-50.56-10.017-15.58-6.678-29.09-15.741-40.54-27.189-11.45-11.766-20.51-25.44-27.19-41.022-6.68-15.9-10.02-32.754-10.02-50.562s3.34-34.503 10.02-50.085c6.99-15.582 16.38-29.097 28.14-40.545 11.77-11.448 25.6-20.511 41.5-27.189 16.22-6.678 33.39-10.017 51.52-10.017 11.44 0 22.57 1.431 33.39 4.293 10.81 2.862 20.83 6.996 30.05 12.402v-13.356h76.32v249.948c0 34.026-11.29 60.102-33.87 78.228-22.58 18.444-54.85 27.666-96.83 27.666-20.03 0-39.27-1.908-57.72-5.724-18.44-3.816-35.14-9.222-50.08-16.218l25.76-60.102c13.67 6.36 27.18 11.13 40.54 14.31 13.36 3.18 26.71 4.77 40.07 4.77 18.12 0 31.8-3.657 41.02-10.971 9.22-7.314 13.83-18.285 13.83-32.913V660.92c-9.54 6.36-19.87 11.289-31 14.787-11.13 3.498-22.58 5.247-34.35 5.247Zm-52.47-128.79c0 18.126 6.36 33.39 19.08 45.792 12.72 12.084 28.31 18.126 46.75 18.126 10.49 0 20.03-1.59 28.62-4.77 8.9-3.18 16.7-7.791 23.37-13.833V508.28c-6.67-5.724-14.47-10.176-23.37-13.356-8.9-3.498-18.28-5.247-28.14-5.247-18.45 0-34.19 6.042-47.23 18.126-12.72 12.084-19.08 26.871-19.08 44.361ZM2672.02 646.61c-15.9 13.356-32.28 23.055-49.13 29.097-16.54 6.042-35.3 9.063-56.29 9.063-19.08 0-37.04-3.339-53.9-10.017-16.85-6.678-31.48-15.9-43.88-27.666-12.09-11.766-21.78-25.599-29.1-41.499-6.99-16.218-10.49-33.39-10.49-51.516 0-18.126 3.34-35.139 10.01-51.039 7-16.218 16.38-30.21 28.15-41.976 11.76-11.766 25.6-20.988 41.5-27.666 16.21-6.678 33.55-10.017 51.99-10.017 18.44 0 35.46 3.498 51.04 10.494 15.58 6.996 28.94 16.536 40.07 28.62 11.44 12.084 20.35 26.712 26.71 43.884 6.36 16.854 9.54 35.139 9.54 54.855v19.08h-179.83c5.09 11.766 13.04 21.465 23.85 29.097 10.81 7.314 23.53 10.971 38.16 10.971 10.49 0 20.03-1.59 28.62-4.77 8.59-3.498 15.9-8.268 21.94-14.31l51.04 45.315Zm-112.57-160.272c-12.72 0-23.69 3.498-32.91 10.494-9.23 6.996-15.75 16.854-19.56 29.574h105.42c-4.14-12.084-10.98-21.783-20.52-29.097-9.22-7.314-20.03-10.971-32.43-10.971ZM2804.97 684.293c-26.71 0-48.65-7.314-65.82-21.942-17.18-14.628-25.76-33.39-25.76-56.286 0-23.85 9.06-42.453 27.19-55.809 18.44-13.356 44.04-20.034 76.79-20.034 9.86 0 19.56.636 29.1 1.908a274.275 274.275 0 0 1 28.14 5.247v-12.402c0-12.72-4.13-22.101-12.4-28.143-7.95-6.36-19.87-9.54-35.77-9.54-9.86 0-20.99 1.59-33.39 4.77-12.4 3.18-26.71 8.268-42.93 15.264l-27.67-56.763c20.35-9.222 40.23-16.059 59.63-20.511 19.71-4.77 39.11-7.155 58.19-7.155 34.98 0 62.17 8.427 81.57 25.281 19.4 16.536 29.09 39.909 29.09 70.119V680h-76.32v-15.264c-10.17 6.996-20.98 12.084-32.43 15.264-11.13 2.862-23.53 4.293-37.21 4.293Zm-18.12-79.659c0 7.95 3.49 14.151 10.49 18.603 7 4.452 16.7 6.678 29.1 6.678 9.22 0 17.81-.954 25.76-2.862 8.26-1.908 15.74-4.929 22.41-9.063v-32.436a174.222 174.222 0 0 0-22.41-4.293 188.493 188.493 0 0 0-23.38-1.431c-13.35 0-23.69 2.226-31 6.678-7.32 4.134-10.97 10.176-10.97 18.126ZM2996.86 680V427.667h77.28v25.281c8.27-9.858 17.97-17.49 29.1-22.896 11.13-5.406 23.53-8.109 37.2-8.109 7.32.318 13.2.954 17.65 1.908 4.45.636 8.27 2.067 11.45 4.293v67.257c-5.09-2.226-10.81-3.975-17.17-5.247-6.36-1.59-12.88-2.385-19.56-2.385-12.08 0-23.37 2.862-33.87 8.586-10.17 5.724-18.44 13.515-24.8 23.373V680h-77.28Z"/></svg>